<svg width="151" height="26" viewBox="0 0 151 26" fill="none" xmlns="http://www.w3.org/2000/svg">
<path d="M8.14 5.048H0.472V0.439999H21.28V5.048H13.648V26H8.14V5.048ZM32.1453 0.439999H49.9293V5.048H37.6173V10.916H49.4973V15.452H37.6173V21.392H50.2173V26H32.1453V0.439999ZM61.7398 0.439999H69.0478L75.5638 19.052L82.0438 0.439999H89.3518V26H83.8798V9.44L77.8678 25.928H73.1878L67.2118 9.44V26H61.7398V0.439999ZM101.073 0.439999H111.297C113.313 0.439999 115.065 0.775999 116.553 1.448C118.041 2.12 119.169 3.092 119.937 4.364C120.729 5.612 121.125 7.088 121.125 8.792C121.125 10.496 120.729 11.984 119.937 13.256C119.169 14.504 118.041 15.476 116.553 16.172C115.065 16.844 113.313 17.18 111.297 17.18H106.545V26H101.073V0.439999ZM110.973 12.572C112.437 12.572 113.553 12.248 114.321 11.6C115.113 10.952 115.509 10.016 115.509 8.792C115.509 7.568 115.113 6.644 114.321 6.02C113.553 5.372 112.437 5.048 110.973 5.048H106.545V12.572H110.973ZM132.46 0.439999H150.244V5.048H137.932V10.916H149.812V15.452H137.932V21.392H150.532V26H132.46V0.439999Z" fill="url(#paint0_linear_569_21)"/>
<defs>
<linearGradient id="paint0_linear_569_21" x1="-0.5" y1="13.5" x2="152.5" y2="13.5" gradientUnits="userSpaceOnUse">
<stop stop-color="#51E2B5"/>
<stop offset="0.475" stop-color="#23C08F"/>
<stop offset="1" stop-color="#4AC8D6"/>
</linearGradient>
</defs>
</svg>
