<svg width="921" height="783" viewBox="0 0 921 783" fill="none" xmlns="http://www.w3.org/2000/svg">
<g id="No Results">
<g id="circle">
<path id="Stroke 1" d="M34.8164 399V408" stroke="#D2D8DF" stroke-width="2.921" stroke-linecap="round"/>
<g id="Group 8">
<path id="Stroke 2" d="M14.6016 403.875L21.9558 411.446" stroke="#D2D8DF" stroke-width="2.921" stroke-linecap="round"/>
<path id="Stroke 4" d="M6 424.028H16.3989" stroke="#D2D8DF" stroke-width="2.921" stroke-linecap="round"/>
<path id="Stroke 6" d="M13.7578 444.539L21.1121 436.969" stroke="#D2D8DF" stroke-width="2.921" stroke-linecap="round"/>
</g>
<path id="Stroke 9" d="M34.8164 447V438" stroke="#D2D8DF" stroke-width="2.921" stroke-linecap="round"/>
<path id="Stroke 10" d="M49.8164 441L43.8164 435" stroke="#D2D8DF" stroke-width="2.921" stroke-linecap="round"/>
<path id="Stroke 11" d="M61.8164 426H52.8164" stroke="#D2D8DF" stroke-width="2.921" stroke-linecap="round"/>
<path id="Stroke 12" d="M55.8164 405L49.8164 411" stroke="#D2D8DF" stroke-width="2.921" stroke-linecap="round"/>
<path id="Stroke 13" d="M517.816 6V12" stroke="#D2D8DF" stroke-width="2.921" stroke-linecap="round"/>
<path id="Stroke 15" d="M499.816 24H505.816" stroke="#D2D8DF" stroke-width="2.921" stroke-linecap="round"/>
<path id="Stroke 16" d="M517.816 42V36" stroke="#D2D8DF" stroke-width="2.921" stroke-linecap="round"/>
<path id="Stroke 17" d="M532.816 24H526.816" stroke="#D2D8DF" stroke-width="2.921" stroke-linecap="round"/>
<path id="Stroke 18" d="M169.816 258V267" stroke="#D2D8DF" stroke-width="2.921" stroke-linecap="round"/>
<path id="Stroke 19" d="M142.816 285H151.816" stroke="#D2D8DF" stroke-width="2.921" stroke-linecap="round"/>
<path id="Stroke 20" d="M169.816 309V300" stroke="#D2D8DF" stroke-width="2.921" stroke-linecap="round"/>
<path id="Stroke 21" d="M193.816 285H184.816" stroke="#D2D8DF" stroke-width="2.921" stroke-linecap="round"/>
<g id="Group 42">
<path id="Stroke 22" d="M815.578 585.117C822.747 585.117 828.562 590.933 828.562 598.105C828.562 605.278 822.747 611.092 815.578 611.092C808.408 611.092 802.594 605.278 802.594 598.105" stroke="#D2D8DF" stroke-width="2.921" stroke-linecap="round"/>
<path id="Fill 26" fill-rule="evenodd" clip-rule="evenodd" d="M874.998 467.29C882.707 464.885 894.525 455.457 897.26 445.312C899.741 454.28 910.14 464.885 919.523 465.688C908.961 469.428 898.862 480.537 897.26 489.265C896.17 480.369 882.203 468.587 874.998 467.29" fill="#EBECEE"/>
<path id="Fill 28" fill-rule="evenodd" clip-rule="evenodd" d="M83.6309 581.116C87.4868 579.914 93.393 575.201 94.7607 570.129C96.001 574.61 101.199 579.914 105.891 580.317C100.611 582.184 95.563 587.74 94.7607 592.104C94.2157 587.656 87.2321 581.764 83.6309 581.116" fill="#EBECEE"/>
<path id="Fill 30" fill-rule="evenodd" clip-rule="evenodd" d="M155.188 163.791C155.188 169.355 150.68 173.862 145.121 173.862C139.558 173.862 135.053 169.355 135.053 163.791C135.053 158.23 139.558 153.721 145.121 153.721C150.68 153.721 155.188 158.23 155.188 163.791" fill="#D1D8DF"/>
<path id="Fill 32" fill-rule="evenodd" clip-rule="evenodd" d="M827.473 190.832C827.473 200.128 819.937 207.663 810.646 207.663C801.35 207.663 793.816 200.128 793.816 190.832C793.816 181.536 801.35 174 810.646 174C819.937 174 827.473 181.536 827.473 190.832" fill="#EBECEE"/>
<path id="Stroke 36" fill-rule="evenodd" clip-rule="evenodd" d="M343.347 768.803C343.347 773.452 339.58 777.22 334.932 777.22C330.286 777.22 326.52 773.452 326.52 768.803C326.52 764.154 330.286 760.386 334.932 760.386C339.58 760.386 343.347 764.154 343.347 768.803Z" stroke="#D2D8DF" stroke-width="2.921" stroke-linecap="round"/>
<path id="Stroke 38" fill-rule="evenodd" clip-rule="evenodd" d="M338.341 99.0948C338.341 104.659 333.833 109.165 328.273 109.165C322.713 109.165 318.205 104.659 318.205 99.0948C318.205 93.5336 322.713 89.0244 328.273 89.0244C333.833 89.0244 338.341 93.5336 338.341 99.0948Z" stroke="#D2D8DF" stroke-width="2.921" stroke-linecap="round"/>
</g>
</g>
<g id="search">
<g id="documents">
<path id="Fill 1" fill-rule="evenodd" clip-rule="evenodd" d="M591.314 624H345.3C327.984 624 313.811 609.784 313.811 592.41V241.582C313.811 224.209 327.984 210 345.3 210H591.314C608.637 210 622.811 224.209 622.811 241.582V592.41C622.811 609.784 608.637 624 591.314 624" fill="#D4D4D4"/>
<path id="Fill 3" fill-rule="evenodd" clip-rule="evenodd" d="M570.314 639H324.3C306.984 639 292.811 624.784 292.811 607.41V256.582C292.811 239.209 306.984 225 324.3 225H570.314C587.637 225 601.811 239.209 601.811 256.582V607.41C601.811 624.784 587.637 639 570.314 639" fill="#E5E5E5"/>
<path id="Fill 5" fill-rule="evenodd" clip-rule="evenodd" d="M549.888 650.841H303.365C286.014 650.841 271.811 636.685 271.811 619.383V270.007C271.811 252.705 286.014 238.556 303.365 238.556H549.888C567.246 238.556 581.449 252.705 581.449 270.007V619.383C581.449 636.685 567.246 650.841 549.888 650.841" fill="#D8DBEA"/>
<path id="Fill 8" fill-rule="evenodd" clip-rule="evenodd" d="M549.888 650.841H303.365C286.014 650.841 271.811 636.685 271.811 619.383V270.007C271.811 252.705 286.014 238.556 303.365 238.556H549.888C567.246 238.556 581.449 252.705 581.449 270.007V619.383C581.449 636.685 567.246 650.841 549.888 650.841" fill="#F5F5F5"/>
<path id="Fill 11" fill-rule="evenodd" clip-rule="evenodd" d="M514.354 345H332.267C327.067 345 322.811 340.951 322.811 336.003C322.811 331.049 327.067 327 332.267 327H514.354C519.554 327 523.811 331.049 523.811 336.003C523.811 340.951 519.554 345 514.354 345" fill="#D4D4D4"/>
<path id="Fill 13" fill-rule="evenodd" clip-rule="evenodd" d="M514.354 399H332.267C327.067 399 322.811 394.951 322.811 390.003C322.811 385.049 327.067 381 332.267 381H514.354C519.554 381 523.811 385.049 523.811 390.003C523.811 394.951 519.554 399 514.354 399" fill="#D4D4D4"/>
<path id="Fill 15" fill-rule="evenodd" clip-rule="evenodd" d="M514.354 453H332.267C327.067 453 322.811 448.951 322.811 444.003C322.811 439.056 327.067 435 332.267 435H514.354C519.554 435 523.811 439.056 523.811 444.003C523.811 448.951 519.554 453 514.354 453" fill="#D4D4D4"/>
<path id="Fill 17" fill-rule="evenodd" clip-rule="evenodd" d="M514.354 507H332.267C327.067 507 322.811 502.951 322.811 498.003C322.811 493.049 327.067 489 332.267 489H514.354C519.554 489 523.811 493.049 523.811 498.003C523.811 502.951 519.554 507 514.354 507" fill="#D4D4D4"/>
<path id="Fill 19" fill-rule="evenodd" clip-rule="evenodd" d="M427.314 561H332.308C327.085 561 322.811 556.951 322.811 552.003C322.811 547.049 327.085 543 332.308 543H427.314C432.536 543 436.811 547.049 436.811 552.003C436.811 556.951 432.536 561 427.314 561" fill="#D4D4D4"/>
</g>
</g>
</g>
</svg>
