<svg width="238" height="123" viewBox="0 0 238 123" fill="none" xmlns="http://www.w3.org/2000/svg">
<path fill-rule="evenodd" clip-rule="evenodd" d="M228.024 0C233.534 0 238 4.46643 238 9.97605C238 15.4857 233.534 19.9521 228.024 19.9521H171.018C176.528 19.9521 180.994 24.4185 180.994 29.9281C180.994 35.4378 176.528 39.9042 171.018 39.9042H202.371C207.881 39.9042 212.347 44.3706 212.347 49.8802C212.347 55.3899 207.881 59.8563 202.371 59.8563H187.872C180.925 59.8563 175.293 64.3227 175.293 69.8323C175.293 73.5054 178.144 76.8308 183.844 79.8084C189.354 79.8084 193.82 84.2748 193.82 89.7844C193.82 95.2941 189.354 99.7605 183.844 99.7605H65.5569C60.0473 99.7605 55.5808 95.2941 55.5808 89.7844C55.5808 84.2748 60.0473 79.8084 65.5569 79.8084H9.97605C4.46643 79.8084 0 75.3419 0 69.8323C0 64.3227 4.46643 59.8563 9.97605 59.8563H66.982C72.4917 59.8563 76.9581 55.3899 76.9581 49.8802C76.9581 44.3706 72.4917 39.9042 66.982 39.9042H31.3533C25.8437 39.9042 21.3772 35.4378 21.3772 29.9281C21.3772 24.4185 25.8437 19.9521 31.3533 19.9521H88.3593C82.8497 19.9521 78.3832 15.4857 78.3832 9.97605C78.3832 4.46643 82.8497 0 88.3593 0H228.024ZM228.024 39.9042C233.534 39.9042 238 44.3706 238 49.8802C238 55.3899 233.534 59.8563 228.024 59.8563C222.514 59.8563 218.048 55.3899 218.048 49.8802C218.048 44.3706 222.514 39.9042 228.024 39.9042Z" fill="#F5F5F5"/>
<path d="M104.749 96.9103C131.116 96.9103 152.491 75.5353 152.491 49.1678C152.491 22.8003 131.116 1.42529 104.749 1.42529C78.3812 1.42529 57.0061 22.8003 57.0061 49.1678C57.0061 75.5353 78.3812 96.9103 104.749 96.9103Z" fill="#F5F5F5" stroke="#A3A3A3" stroke-width="2.5"/>
<path fill-rule="evenodd" clip-rule="evenodd" d="M97.0983 86.2128C99.6048 86.6754 102.155 86.9159 104.748 86.9341C125.606 86.9341 142.515 70.0254 142.515 49.1676C142.515 28.3097 125.606 11.4011 104.748 11.4011C99.3904 11.4011 94.2929 12.5169 89.6758 14.5288C81.6522 18.025 75.079 24.2274 71.1091 31.983C68.4705 37.1378 66.9819 42.9789 66.9819 49.1676C66.9819 54.7827 68.2073 60.1116 70.4053 64.9014C71.9746 68.321 74.0395 71.4658 76.5081 74.2439" fill="white"/>
<path d="M97.0983 86.2128C99.6048 86.6754 102.155 86.9159 104.748 86.9341C125.606 86.9341 142.515 70.0254 142.515 49.1676C142.515 28.3097 125.606 11.4011 104.748 11.4011C99.3904 11.4011 94.2929 12.5169 89.6758 14.5288C81.6522 18.025 75.079 24.2274 71.1091 31.983C68.4705 37.1378 66.9819 42.9789 66.9819 49.1676C66.9819 54.7827 68.2073 60.1116 70.4053 64.9014C71.9746 68.321 74.0395 71.4658 76.5081 74.2439" stroke="#A3A3A3" stroke-width="2.5" stroke-linecap="round"/>
<path d="M80.9448 78.4897C84.0062 80.978 87.4648 82.9965 91.2108 84.4353" stroke="#A3A3A3" stroke-width="2.5" stroke-linecap="round"/>
<path d="M143.94 86.9341L152.491 95.485" stroke="#A3A3A3" stroke-width="2.5"/>
<path fill-rule="evenodd" clip-rule="evenodd" d="M151.109 94.1031C148.412 96.8005 148.412 101.174 151.109 103.871L166.907 119.669C169.605 122.367 173.978 122.367 176.676 119.669C179.373 116.972 179.373 112.599 176.676 109.901L160.877 94.1031C158.18 91.4057 153.807 91.4057 151.109 94.1031Z" fill="#F5F5F5" stroke="#A3A3A3" stroke-width="2.5"/>
<path d="M158.192 96.9102L173.868 112.587" stroke="white" stroke-width="2.5" stroke-linecap="round"/>
<path fill-rule="evenodd" clip-rule="evenodd" d="M95.485 32.7785C95.485 49.3074 108.884 62.7066 125.413 62.7066C128.66 62.7066 131.786 62.1896 134.714 61.2332C129.935 73.0918 118.319 81.4626 104.748 81.4626C86.9125 81.4626 72.4536 67.0037 72.4536 49.1677C72.4536 33.0059 84.3256 19.6169 99.8246 17.2458C97.0711 21.7753 95.485 27.0917 95.485 32.7785Z" fill="#F5F5F5"/>
<path d="M105.461 22.8025C103.646 22.8025 101.873 22.981 100.159 23.3215M94.9788 24.9061C85.2295 29.0031 78.3833 38.6422 78.3833 49.8803" stroke="#D4D4D4" stroke-width="2.5" stroke-linecap="round"/>
<path d="M181.245 49.5629H169.593M190.258 38.479H165.78H190.258ZM200.234 38.479H197.068H200.234Z" stroke="#D4D4D4" stroke-width="2.5" stroke-linecap="round" stroke-linejoin="round"/>
<path d="M52.9809 80.9163H41.3292M46.3172 68.4072H21.8392H46.3172ZM13.5388 68.4072H7.52295H13.5388Z" stroke="#D4D4D4" stroke-width="2.5" stroke-linecap="round" stroke-linejoin="round"/>
</svg>
